<mxfile host="65bd71144e">
    <diagram id="0FfoJpHoB8XYPUvFC1Co" name="Page-1">
        <mxGraphModel dx="821" dy="524" grid="1" gridSize="10" guides="1" tooltips="1" connect="1" arrows="1" fold="1" page="1" pageScale="1" pageWidth="850" pageHeight="1100" math="1" shadow="0">
            <root>
                <mxCell id="0"/>
                <mxCell id="1" parent="0"/>
                <mxCell id="74" style="edgeStyle=orthogonalEdgeStyle;html=1;entryX=0.5;entryY=1;entryDx=0;entryDy=0;strokeColor=#B3B3B3;strokeWidth=1;" parent="1" source="52" target="66" edge="1">
                    <mxGeometry relative="1" as="geometry">
                        <Array as="points">
                            <mxPoint x="190" y="330"/>
                            <mxPoint x="190" y="360"/>
                            <mxPoint x="330" y="360"/>
                        </Array>
                    </mxGeometry>
                </mxCell>
                <mxCell id="78" style="edgeStyle=orthogonalEdgeStyle;html=1;entryX=0;entryY=0.5;entryDx=0;entryDy=0;strokeColor=#B3B3B3;strokeWidth=2;" parent="1" source="40" target="77" edge="1">
                    <mxGeometry relative="1" as="geometry">
                        <Array as="points">
                            <mxPoint x="190" y="400"/>
                            <mxPoint x="190" y="430"/>
                        </Array>
                    </mxGeometry>
                </mxCell>
                <mxCell id="4" value="BF16" style="text;html=1;align=center;verticalAlign=middle;resizable=0;points=[];autosize=1;strokeColor=none;fillColor=none;" parent="1" vertex="1">
                    <mxGeometry x="40" y="100" width="50" height="30" as="geometry"/>
                </mxCell>
                <mxCell id="18" style="edgeStyle=orthogonalEdgeStyle;html=1;entryX=0;entryY=0.5;entryDx=0;entryDy=0;strokeWidth=2;" parent="1" source="5" target="6" edge="1">
                    <mxGeometry relative="1" as="geometry"/>
                </mxCell>
                <mxCell id="23" style="edgeStyle=orthogonalEdgeStyle;html=1;entryX=0;entryY=0.25;entryDx=0;entryDy=0;strokeWidth=2;" parent="1" source="5" target="19" edge="1">
                    <mxGeometry relative="1" as="geometry">
                        <Array as="points">
                            <mxPoint x="140" y="140"/>
                            <mxPoint x="140" y="195"/>
                        </Array>
                    </mxGeometry>
                </mxCell>
                <mxCell id="24" style="edgeStyle=orthogonalEdgeStyle;html=1;entryX=0;entryY=0.75;entryDx=0;entryDy=0;strokeWidth=2;" parent="1" source="5" target="19" edge="1">
                    <mxGeometry relative="1" as="geometry">
                        <Array as="points">
                            <mxPoint x="140" y="140"/>
                            <mxPoint x="140" y="215"/>
                        </Array>
                    </mxGeometry>
                </mxCell>
                <mxCell id="25" style="edgeStyle=orthogonalEdgeStyle;html=1;entryX=0.5;entryY=0;entryDx=0;entryDy=0;strokeWidth=2;" parent="1" source="5" target="19" edge="1">
                    <mxGeometry relative="1" as="geometry">
                        <Array as="points">
                            <mxPoint x="200" y="140"/>
                            <mxPoint x="200" y="160"/>
                            <mxPoint x="235" y="160"/>
                        </Array>
                    </mxGeometry>
                </mxCell>
                <mxCell id="5" value="&amp;nbsp;Input [k]" style="shape=offPageConnector;whiteSpace=wrap;html=1;rotation=0;direction=north;labelPosition=center;verticalLabelPosition=middle;align=left;verticalAlign=middle;size=0.16666666666666666;" parent="1" vertex="1">
                    <mxGeometry x="40" y="130" width="80" height="20" as="geometry"/>
                </mxCell>
                <mxCell id="28" style="edgeStyle=orthogonalEdgeStyle;html=1;entryX=0.5;entryY=0;entryDx=0;entryDy=0;strokeWidth=2;" parent="1" source="6" target="26" edge="1">
                    <mxGeometry relative="1" as="geometry"/>
                </mxCell>
                <mxCell id="6" value="-" style="ellipse;whiteSpace=wrap;html=1;aspect=fixed;fontSize=24;" parent="1" vertex="1">
                    <mxGeometry x="240" y="125" width="30" height="30" as="geometry"/>
                </mxCell>
                <mxCell id="7" value="&lt;div style=&quot;text-align: left;&quot;&gt;&lt;span style=&quot;background-color: initial;&quot;&gt;Scale&amp;nbsp;&lt;/span&gt;&lt;/div&gt;" style="shape=offPageConnector;whiteSpace=wrap;html=1;rotation=0;direction=south;labelPosition=center;verticalLabelPosition=middle;align=right;verticalAlign=middle;size=0.16666666666666666;" parent="1" vertex="1">
                    <mxGeometry x="400" y="80" width="80" height="20" as="geometry"/>
                </mxCell>
                <mxCell id="8" value="E8M0" style="text;html=1;align=center;verticalAlign=middle;resizable=0;points=[];autosize=1;strokeColor=none;fillColor=none;" parent="1" vertex="1">
                    <mxGeometry x="430" y="50" width="50" height="30" as="geometry"/>
                </mxCell>
                <mxCell id="9" value="exps" style="text;html=1;align=center;verticalAlign=middle;resizable=0;points=[];autosize=1;strokeColor=none;fillColor=none;" parent="1" vertex="1">
                    <mxGeometry x="135" y="115" width="50" height="30" as="geometry"/>
                </mxCell>
                <mxCell id="10" value="mans" style="text;html=1;align=center;verticalAlign=middle;resizable=0;points=[];autosize=1;strokeColor=none;fillColor=none;" parent="1" vertex="1">
                    <mxGeometry x="135" y="170" width="50" height="30" as="geometry"/>
                </mxCell>
                <mxCell id="11" value="sgns" style="text;html=1;align=center;verticalAlign=middle;resizable=0;points=[];autosize=1;strokeColor=none;fillColor=none;" parent="1" vertex="1">
                    <mxGeometry x="135" y="190" width="50" height="30" as="geometry"/>
                </mxCell>
                <mxCell id="12" value="$$d_{shift}$$" style="text;html=1;align=center;verticalAlign=middle;resizable=0;points=[];autosize=1;strokeColor=none;fillColor=none;" parent="1" vertex="1">
                    <mxGeometry x="270" y="115" width="90" height="30" as="geometry"/>
                </mxCell>
                <mxCell id="14" value="E8M0" style="text;html=1;align=center;verticalAlign=middle;resizable=0;points=[];autosize=1;strokeColor=none;fillColor=none;" parent="1" vertex="1">
                    <mxGeometry x="40" y="50" width="50" height="30" as="geometry"/>
                </mxCell>
                <mxCell id="16" style="edgeStyle=none;html=1;entryX=0.5;entryY=1;entryDx=0;entryDy=0;" parent="1" source="15" target="7" edge="1">
                    <mxGeometry relative="1" as="geometry"/>
                </mxCell>
                <mxCell id="17" style="edgeStyle=orthogonalEdgeStyle;html=1;entryX=0.5;entryY=0;entryDx=0;entryDy=0;" parent="1" source="15" target="6" edge="1">
                    <mxGeometry relative="1" as="geometry"/>
                </mxCell>
                <mxCell id="15" value="&amp;nbsp;Stat" style="shape=offPageConnector;whiteSpace=wrap;html=1;rotation=0;direction=north;labelPosition=center;verticalLabelPosition=middle;align=left;verticalAlign=middle;size=0.16666666666666666;" parent="1" vertex="1">
                    <mxGeometry x="40" y="80" width="80" height="20" as="geometry"/>
                </mxCell>
                <mxCell id="27" style="edgeStyle=orthogonalEdgeStyle;html=1;entryX=0;entryY=0.5;entryDx=0;entryDy=0;strokeWidth=2;" parent="1" source="19" target="26" edge="1">
                    <mxGeometry relative="1" as="geometry"/>
                </mxCell>
                <mxCell id="19" value="Convert to&lt;br&gt;2's cmpl" style="rounded=0;whiteSpace=wrap;html=1;" parent="1" vertex="1">
                    <mxGeometry x="200" y="185" width="70" height="40" as="geometry"/>
                </mxCell>
                <mxCell id="30" style="edgeStyle=orthogonalEdgeStyle;html=1;entryX=0.5;entryY=1;entryDx=0;entryDy=0;strokeWidth=2;" parent="1" source="26" target="29" edge="1">
                    <mxGeometry relative="1" as="geometry"/>
                </mxCell>
                <mxCell id="26" value="u_shift_rnd" style="rounded=0;whiteSpace=wrap;html=1;" parent="1" vertex="1">
                    <mxGeometry x="300" y="195" width="70" height="20" as="geometry"/>
                </mxCell>
                <mxCell id="29" value="&lt;span style=&quot;text-align: left;&quot;&gt;Values [k]&amp;nbsp; &amp;nbsp;&lt;/span&gt;" style="shape=offPageConnector;whiteSpace=wrap;html=1;rotation=0;direction=south;labelPosition=center;verticalLabelPosition=middle;align=right;verticalAlign=middle;size=0.16666666666666666;" parent="1" vertex="1">
                    <mxGeometry x="400" y="195" width="80" height="20" as="geometry"/>
                </mxCell>
                <mxCell id="31" value="INT8" style="text;html=1;align=center;verticalAlign=middle;resizable=0;points=[];autosize=1;strokeColor=none;fillColor=none;" parent="1" vertex="1">
                    <mxGeometry x="430" y="165" width="50" height="30" as="geometry"/>
                </mxCell>
                <mxCell id="32" value="" style="endArrow=none;dashed=1;html=1;strokeWidth=2;" parent="1" edge="1">
                    <mxGeometry width="50" height="50" relative="1" as="geometry">
                        <mxPoint x="180" y="240" as="sourcePoint"/>
                        <mxPoint x="180" y="40" as="targetPoint"/>
                    </mxGeometry>
                </mxCell>
                <mxCell id="33" value="" style="endArrow=none;dashed=1;html=1;strokeWidth=2;" parent="1" edge="1">
                    <mxGeometry width="50" height="50" relative="1" as="geometry">
                        <mxPoint x="280" y="240" as="sourcePoint"/>
                        <mxPoint x="280" y="40" as="targetPoint"/>
                    </mxGeometry>
                </mxCell>
                <mxCell id="34" value="" style="endArrow=none;dashed=1;html=1;strokeWidth=2;" parent="1" edge="1">
                    <mxGeometry width="50" height="50" relative="1" as="geometry">
                        <mxPoint x="380" y="240" as="sourcePoint"/>
                        <mxPoint x="380" y="40" as="targetPoint"/>
                    </mxGeometry>
                </mxCell>
                <mxCell id="35" value="BF16" style="text;html=1;align=center;verticalAlign=middle;resizable=0;points=[];autosize=1;strokeColor=none;fillColor=none;" parent="1" vertex="1">
                    <mxGeometry x="40" y="360" width="50" height="30" as="geometry"/>
                </mxCell>
                <mxCell id="36" style="edgeStyle=orthogonalEdgeStyle;html=1;entryX=0;entryY=0.5;entryDx=0;entryDy=0;strokeWidth=2;" parent="1" source="40" target="42" edge="1">
                    <mxGeometry relative="1" as="geometry"/>
                </mxCell>
                <mxCell id="39" style="edgeStyle=orthogonalEdgeStyle;html=1;entryX=0.5;entryY=0;entryDx=0;entryDy=0;strokeWidth=2;" parent="1" source="40" target="54" edge="1">
                    <mxGeometry relative="1" as="geometry">
                        <Array as="points">
                            <mxPoint x="190" y="400"/>
                            <mxPoint x="190" y="440"/>
                            <mxPoint x="230" y="440"/>
                        </Array>
                    </mxGeometry>
                </mxCell>
                <mxCell id="75" style="edgeStyle=orthogonalEdgeStyle;html=1;entryX=0.5;entryY=1;entryDx=0;entryDy=0;strokeColor=#000000;strokeWidth=2;" parent="1" source="40" target="57" edge="1">
                    <mxGeometry relative="1" as="geometry">
                        <Array as="points">
                            <mxPoint x="140" y="400"/>
                            <mxPoint x="140" y="490"/>
                            <mxPoint x="370" y="490"/>
                            <mxPoint x="370" y="470"/>
                        </Array>
                    </mxGeometry>
                </mxCell>
                <mxCell id="76" style="edgeStyle=orthogonalEdgeStyle;html=1;entryX=0;entryY=0.5;entryDx=0;entryDy=0;strokeColor=#000000;strokeWidth=2;" parent="1" source="40" target="54" edge="1">
                    <mxGeometry relative="1" as="geometry">
                        <Array as="points">
                            <mxPoint x="140" y="400"/>
                            <mxPoint x="140" y="470"/>
                        </Array>
                    </mxGeometry>
                </mxCell>
                <mxCell id="40" value="&amp;nbsp;Input [k]" style="shape=offPageConnector;whiteSpace=wrap;html=1;rotation=0;direction=north;labelPosition=center;verticalLabelPosition=middle;align=left;verticalAlign=middle;size=0.16666666666666666;" parent="1" vertex="1">
                    <mxGeometry x="40" y="390" width="80" height="20" as="geometry"/>
                </mxCell>
                <mxCell id="79" style="edgeStyle=orthogonalEdgeStyle;html=1;entryX=0.75;entryY=0;entryDx=0;entryDy=0;strokeColor=#000000;strokeWidth=2;" parent="1" source="42" target="56" edge="1">
                    <mxGeometry relative="1" as="geometry"/>
                </mxCell>
                <mxCell id="42" value="-" style="ellipse;whiteSpace=wrap;html=1;aspect=fixed;fontSize=24;" parent="1" vertex="1">
                    <mxGeometry x="240" y="385" width="30" height="30" as="geometry"/>
                </mxCell>
                <mxCell id="43" value="&lt;div style=&quot;text-align: left;&quot;&gt;&lt;span style=&quot;background-color: initial;&quot;&gt;Scale&amp;nbsp;&lt;/span&gt;&lt;/div&gt;" style="shape=offPageConnector;whiteSpace=wrap;html=1;rotation=0;direction=south;labelPosition=center;verticalLabelPosition=middle;align=right;verticalAlign=middle;size=0.16666666666666666;" parent="1" vertex="1">
                    <mxGeometry x="400" y="320" width="80" height="20" as="geometry"/>
                </mxCell>
                <mxCell id="44" value="E8M0" style="text;html=1;align=center;verticalAlign=middle;resizable=0;points=[];autosize=1;strokeColor=none;fillColor=none;" parent="1" vertex="1">
                    <mxGeometry x="430" y="290" width="50" height="30" as="geometry"/>
                </mxCell>
                <mxCell id="45" value="exps" style="text;html=1;align=center;verticalAlign=middle;resizable=0;points=[];autosize=1;strokeColor=none;fillColor=none;" parent="1" vertex="1">
                    <mxGeometry x="135" y="375" width="50" height="30" as="geometry"/>
                </mxCell>
                <mxCell id="46" value="mans" style="text;html=1;align=center;verticalAlign=middle;resizable=0;points=[];autosize=1;strokeColor=none;fillColor=none;" parent="1" vertex="1">
                    <mxGeometry x="135" y="445" width="50" height="30" as="geometry"/>
                </mxCell>
                <mxCell id="47" value="sgns" style="text;html=1;align=center;verticalAlign=middle;resizable=0;points=[];autosize=1;strokeColor=none;fillColor=none;" parent="1" vertex="1">
                    <mxGeometry x="135" y="465" width="50" height="30" as="geometry"/>
                </mxCell>
                <mxCell id="48" value="$$d_{shift}$$" style="text;html=1;align=center;verticalAlign=middle;resizable=0;points=[];autosize=1;strokeColor=none;fillColor=none;" parent="1" vertex="1">
                    <mxGeometry x="280" y="375" width="90" height="30" as="geometry"/>
                </mxCell>
                <mxCell id="49" value="E8M0" style="text;html=1;align=center;verticalAlign=middle;resizable=0;points=[];autosize=1;strokeColor=none;fillColor=none;" parent="1" vertex="1">
                    <mxGeometry x="40" y="290" width="50" height="30" as="geometry"/>
                </mxCell>
                <mxCell id="72" style="edgeStyle=orthogonalEdgeStyle;html=1;entryX=0;entryY=0.5;entryDx=0;entryDy=0;strokeColor=#000000;strokeWidth=1;" parent="1" source="52" target="62" edge="1">
                    <mxGeometry relative="1" as="geometry"/>
                </mxCell>
                <mxCell id="73" style="edgeStyle=orthogonalEdgeStyle;html=1;entryX=0.5;entryY=0;entryDx=0;entryDy=0;strokeColor=#000000;strokeWidth=1;" parent="1" source="52" target="42" edge="1">
                    <mxGeometry relative="1" as="geometry">
                        <Array as="points">
                            <mxPoint x="190" y="330"/>
                            <mxPoint x="190" y="360"/>
                            <mxPoint x="255" y="360"/>
                        </Array>
                    </mxGeometry>
                </mxCell>
                <mxCell id="52" value="&amp;nbsp;Stat" style="shape=offPageConnector;whiteSpace=wrap;html=1;rotation=0;direction=north;labelPosition=center;verticalLabelPosition=middle;align=left;verticalAlign=middle;size=0.16666666666666666;" parent="1" vertex="1">
                    <mxGeometry x="40" y="320" width="80" height="20" as="geometry"/>
                </mxCell>
                <mxCell id="53" style="edgeStyle=orthogonalEdgeStyle;html=1;entryX=0;entryY=0.5;entryDx=0;entryDy=0;strokeWidth=2;" parent="1" source="54" target="56" edge="1">
                    <mxGeometry relative="1" as="geometry"/>
                </mxCell>
                <mxCell id="54" value="Denorm?" style="rounded=0;whiteSpace=wrap;html=1;" parent="1" vertex="1">
                    <mxGeometry x="200" y="460" width="60" height="20" as="geometry"/>
                </mxCell>
                <mxCell id="55" style="edgeStyle=orthogonalEdgeStyle;html=1;entryX=0.5;entryY=1;entryDx=0;entryDy=0;strokeWidth=2;" parent="1" source="56" target="57" edge="1">
                    <mxGeometry relative="1" as="geometry"/>
                </mxCell>
                <mxCell id="56" value="u_fp_rnd" style="rounded=0;whiteSpace=wrap;html=1;" parent="1" vertex="1">
                    <mxGeometry x="300" y="460" width="60" height="20" as="geometry"/>
                </mxCell>
                <mxCell id="57" value="&lt;span style=&quot;text-align: left;&quot;&gt;Values [k]&amp;nbsp; &amp;nbsp;&lt;/span&gt;" style="shape=offPageConnector;whiteSpace=wrap;html=1;rotation=0;direction=south;labelPosition=center;verticalLabelPosition=middle;align=right;verticalAlign=middle;size=0.16666666666666666;" parent="1" vertex="1">
                    <mxGeometry x="400" y="460" width="80" height="20" as="geometry"/>
                </mxCell>
                <mxCell id="58" value="INT8" style="text;html=1;align=center;verticalAlign=middle;resizable=0;points=[];autosize=1;strokeColor=none;fillColor=none;" parent="1" vertex="1">
                    <mxGeometry x="430" y="430" width="50" height="30" as="geometry"/>
                </mxCell>
                <mxCell id="59" value="" style="endArrow=none;dashed=1;html=1;strokeWidth=2;" parent="1" edge="1">
                    <mxGeometry width="50" height="50" relative="1" as="geometry">
                        <mxPoint x="180" y="499.9999999999999" as="sourcePoint"/>
                        <mxPoint x="180" y="280" as="targetPoint"/>
                    </mxGeometry>
                </mxCell>
                <mxCell id="60" value="" style="endArrow=none;dashed=1;html=1;strokeWidth=2;" parent="1" edge="1">
                    <mxGeometry width="50" height="50" relative="1" as="geometry">
                        <mxPoint x="280" y="499.9999999999999" as="sourcePoint"/>
                        <mxPoint x="280" y="280" as="targetPoint"/>
                    </mxGeometry>
                </mxCell>
                <mxCell id="61" value="" style="endArrow=none;dashed=1;html=1;strokeWidth=2;" parent="1" edge="1">
                    <mxGeometry width="50" height="50" relative="1" as="geometry">
                        <mxPoint x="380" y="499.9999999999999" as="sourcePoint"/>
                        <mxPoint x="380" y="280" as="targetPoint"/>
                    </mxGeometry>
                </mxCell>
                <mxCell id="67" style="edgeStyle=orthogonalEdgeStyle;html=1;entryX=0;entryY=0.5;entryDx=0;entryDy=0;strokeWidth=1;" parent="1" source="62" target="66" edge="1">
                    <mxGeometry relative="1" as="geometry"/>
                </mxCell>
                <mxCell id="62" value="-" style="ellipse;whiteSpace=wrap;html=1;aspect=fixed;fontSize=24;" parent="1" vertex="1">
                    <mxGeometry x="240" y="315" width="30" height="30" as="geometry"/>
                </mxCell>
                <mxCell id="71" style="edgeStyle=orthogonalEdgeStyle;html=1;entryX=0.5;entryY=0;entryDx=0;entryDy=0;strokeColor=#000000;strokeWidth=1;" parent="1" source="64" target="62" edge="1">
                    <mxGeometry relative="1" as="geometry"/>
                </mxCell>
                <mxCell id="64" value="&lt;span style=&quot;&quot;&gt;$$2^{E-1}$$&lt;/span&gt;" style="rounded=1;whiteSpace=wrap;html=1;" parent="1" vertex="1">
                    <mxGeometry x="195" y="280" width="40" height="20" as="geometry"/>
                </mxCell>
                <mxCell id="68" style="edgeStyle=orthogonalEdgeStyle;html=1;entryX=0.5;entryY=1;entryDx=0;entryDy=0;strokeWidth=1;" parent="1" source="66" target="43" edge="1">
                    <mxGeometry relative="1" as="geometry"/>
                </mxCell>
                <mxCell id="66" value="NaN?" style="rounded=0;whiteSpace=wrap;html=1;strokeWidth=1;strokeColor=#B3B3B3;fillColor=#E6E6E6;" parent="1" vertex="1">
                    <mxGeometry x="310" y="320" width="40" height="20" as="geometry"/>
                </mxCell>
                <mxCell id="80" style="edgeStyle=orthogonalEdgeStyle;html=1;entryX=0.25;entryY=0;entryDx=0;entryDy=0;strokeColor=#B3B3B3;strokeWidth=2;" parent="1" source="77" target="56" edge="1">
                    <mxGeometry relative="1" as="geometry"/>
                </mxCell>
                <mxCell id="77" value="NaN?" style="rounded=0;whiteSpace=wrap;html=1;strokeWidth=1;strokeColor=#B3B3B3;fillColor=#E6E6E6;" parent="1" vertex="1">
                    <mxGeometry x="235" y="420" width="40" height="20" as="geometry"/>
                </mxCell>
            </root>
        </mxGraphModel>
    </diagram>
</mxfile>